# xmcd
#
# Track frame offsets: 
#        150
#        33937
#        63535
#        101462
#        127290
#        153385
#        186465
#        195110
#        235110
#
# Disc length: 3489 seconds
#
# Revision: 1
# Processed by: cddbd v1.5.2PL0 Copyright (c) Steve Scherf et al.
# Submitted via: ExactAudioCopy v0.95b4
#
DISCID=750d9f09
DTITLE=Peter Almquist Trio - Peter Almquist Trio with Horace Parlan
DYEAR=1997
DGENRE=Jazz
TTITLE0=Little Esther
TTITLE1=Just an Excuse
TTITLE2=Be My Love
TTITLE3=Moose the Mooche
TTITLE4=Bouncin with Wes
TTITLE5=Arrival
TTITLE6=I am Old Fashioned (Intro)
TTITLE7=I am Old Fashioned
TTITLE8=Blues for Gwen
EXTD=YEAR: 1997
EXTT0=
EXTT1=
EXTT2=
EXTT3=
EXTT4=
EXTT5=
EXTT6=
EXTT7=
EXTT8=
PLAYORDER=
